<svg xmlns="http://www.w3.org/2000/svg" viewBox="0 0 128 128">
  <defs>
    <!-- 主渐变色 -->
    <linearGradient id="mainGradient" x1="0%" y1="0%" x2="100%" y2="100%">
      <stop offset="0%" style="stop-color:#ff9a56;stop-opacity:1" />
      <stop offset="50%" style="stop-color:#ff7a5a;stop-opacity:1" />
      <stop offset="100%" style="stop-color:#ff6b6b;stop-opacity:1" />
    </linearGradient>
    
    <!-- 文档渐变 -->
    <linearGradient id="docGradient" x1="0%" y1="0%" x2="100%" y2="100%">
      <stop offset="0%" style="stop-color:#ffffff;stop-opacity:1" />
      <stop offset="100%" style="stop-color:#fff5f0;stop-opacity:1" />
    </linearGradient>
    
    <!-- 阴影效果 -->
    <filter id="softShadow">
      <feGaussianBlur in="SourceAlpha" stdDeviation="3"/>
      <feOffset dx="0" dy="4"/>
      <feComponentTransfer>
        <feFuncA type="linear" slope="0.3"/>
      </feComponentTransfer>
      <feMerge>
        <feMergeNode/>
        <feMergeNode in="SourceGraphic"/>
      </feMerge>
    </filter>
    
    <!-- 内部光晕 -->
    <radialGradient id="innerGlow">
      <stop offset="0%" style="stop-color:#ffffff;stop-opacity:0.4" />
      <stop offset="100%" style="stop-color:#ffffff;stop-opacity:0" />
    </radialGradient>
  </defs>
  
  <!-- 背景圆形 -->
  <circle cx="64" cy="64" r="60" fill="url(#mainGradient)" filter="url(#softShadow)"/>
  
  <!-- 内部光晕 -->
  <circle cx="52" cy="52" r="40" fill="url(#innerGlow)" opacity="0.6"/>
  
  <!-- 文档图标组 -->
  <g transform="translate(32, 28)">
    <!-- 文档背景 -->
    <path d="M 8 0 L 48 0 Q 52 0 52 4 L 52 8 L 56 8 Q 64 8 64 16 L 64 68 Q 64 72 60 72 L 8 72 Q 4 72 4 68 L 4 4 Q 4 0 8 0 Z" 
          fill="url(#docGradient)" 
          stroke="white" 
          stroke-width="2" 
          stroke-linejoin="round"/>
    
    <!-- 文档折角 -->
    <path d="M 48 0 L 48 8 L 56 8 Z" fill="white" opacity="0.8"/>
    
    <!-- M 字母 -->
    <path d="M 14 40 L 14 56 M 14 40 L 22 48 L 30 40 M 30 40 L 30 56" 
          stroke="#ff7a45" 
          stroke-width="4" 
          stroke-linecap="round" 
          stroke-linejoin="round" 
          fill="none"/>
    
    <!-- D 字母 -->
    <path d="M 38 40 L 38 56 M 38 40 L 46 40 Q 54 40 54 48 Q 54 56 46 56 L 38 56" 
          stroke="#ff7a45" 
          stroke-width="4" 
          stroke-linecap="round" 
          stroke-linejoin="round" 
          fill="none"/>
    
    <!-- 装饰线条 -->
    <line x1="14" y1="24" x2="54" y2="24" stroke="#ffccaa" stroke-width="2" stroke-linecap="round" opacity="0.6"/>
    <line x1="14" y1="30" x2="44" y2="30" stroke="#ffccaa" stroke-width="2" stroke-linecap="round" opacity="0.4"/>
  </g>
  
  <!-- 转换箭头装饰 -->
  <g transform="translate(64, 96)">
    <circle cx="0" cy="0" r="12" fill="white" opacity="0.9"/>
    <path d="M -6 0 L 2 0 M 0 -2 L 4 0 L 0 2" 
          stroke="#ff6b6b" 
          stroke-width="2.5" 
          stroke-linecap="round" 
          stroke-linejoin="round" 
          fill="none"/>
  </g>
</svg>